<svg height="16" viewBox="0 0 16 16" width="16" xmlns="http://www.w3.org/2000/svg"><path d="m11.45 4.5a2.56 2.56 0 0 0 -2.32 1.65c-.13-.83-.29-1.65-1.8-1.65a2.45 2.45 0 0 0 -2.2 1.6v-1.6l-2.6.36v.33c.58 0 1.1.13 1.1 1.19v1.42c.52-.14 1-.28 1.54-.39.13-.9.65-2 1.7-2 .57 0 .73.43.78 1.64a10.15 10.15 0 0 1 1.56 0 .17.17 0 0 1 .1 0c.24-.79.79-1.64 1.59-1.64s.79.47.79 2c.5.11 1 .23 1.49.36v-.67c-.04-1.67-.18-2.6-1.73-2.6z"/><path d="m13.14 8.51a20 20 0 0 0 -4-.74h-.82a23.86 23.86 0 0 0 -8.32 1.75 34.3 34.3 0 0 1 3.6-.74v1.1c0 1-.26 1.29-1.1 1.29v.33h3.58v-.33c-.74 0-1-.26-1-1.29v-1.28c.86-.08 1.7-.13 2.53-.13v1.41c0 1-.23 1.29-1 1.29v.33h3.44v-.33c-.77 0-1-.26-1-1.29v-1.37a14.35 14.35 0 0 1 2.53.41v1c0 1-.21 1.29-1 1.29v.33h3.58v-.33c-.87 0-1.1-.26-1.1-1.29v-.6c.62.14 1.25.31 1.93.45s1-.23.89-.49c-.52-.17-2.74-.77-2.74-.77z"/><path d="m14.68 11.27h-.07.2-.07v.21h-.06z"/><path d="m15.05 11.39v-.12a.38.38 0 0 0 0 .1v.1h-.05v-.1a.34.34 0 0 1 0-.1v.21h-.05v-.26h.08v.08a.36.36 0 0 1 0 .1.19.19 0 0 1 0-.1v-.08h.08v.26h-.07z"/></svg>